<mxfile host="app.diagrams.net" modified="2024-01-31T08:11:05.773Z" agent="Mozilla/5.0 (Macintosh; Intel Mac OS X 10_15_7) AppleWebKit/537.36 (KHTML, like Gecko) Chrome/121.0.0.0 Safari/537.36 Edg/121.0.0.0" etag="aix5nFBuRx1D_-TuxaSE" version="22.1.21" type="github">
  <diagram name="Page-1" id="_9JBRErwoKy8lniNwVx0">
    <mxGraphModel dx="2236" dy="800" grid="1" gridSize="10" guides="1" tooltips="1" connect="1" arrows="1" fold="1" page="1" pageScale="1" pageWidth="850" pageHeight="1100" math="0" shadow="0">
      <root>
        <mxCell id="0" />
        <mxCell id="1" parent="0" />
        <mxCell id="TLlCiTiMPOWScbzH-LIN-15" value="" style="rounded=0;whiteSpace=wrap;html=1;dashed=1;fillColor=#dae8fc;strokeColor=#6c8ebf;gradientColor=#7ea6e0;" vertex="1" parent="1">
          <mxGeometry x="-80" y="160" width="720" height="600" as="geometry" />
        </mxCell>
        <mxCell id="TLlCiTiMPOWScbzH-LIN-1" value="" style="rounded=0;whiteSpace=wrap;html=1;fillColor=#f5f5f5;fontColor=#333333;strokeColor=#666666;dashed=1;dashPattern=12 12;" vertex="1" parent="1">
          <mxGeometry x="-40" y="200" width="640" height="520" as="geometry" />
        </mxCell>
        <mxCell id="TLlCiTiMPOWScbzH-LIN-2" value="" style="rounded=0;whiteSpace=wrap;html=1;fillColor=#cce5ff;strokeColor=#36393d;dashed=1;" vertex="1" parent="1">
          <mxGeometry x="60" y="240" width="420" height="400" as="geometry" />
        </mxCell>
        <mxCell id="TLlCiTiMPOWScbzH-LIN-3" value="" style="rounded=0;whiteSpace=wrap;html=1;" vertex="1" parent="1">
          <mxGeometry x="160" y="320" width="220" height="250" as="geometry" />
        </mxCell>
        <mxCell id="TLlCiTiMPOWScbzH-LIN-4" value="" style="image;aspect=fixed;html=1;points=[];align=center;fontSize=12;image=img/lib/azure2/compute/Virtual_Machine.svg;" vertex="1" parent="1">
          <mxGeometry x="260" y="403" width="69" height="64" as="geometry" />
        </mxCell>
        <mxCell id="TLlCiTiMPOWScbzH-LIN-5" value="nsg" style="text;html=1;strokeColor=none;fillColor=none;align=center;verticalAlign=middle;whiteSpace=wrap;rounded=0;" vertex="1" parent="1">
          <mxGeometry x="240.5" y="330" width="60" height="30" as="geometry" />
        </mxCell>
        <mxCell id="TLlCiTiMPOWScbzH-LIN-6" value="rg" style="text;html=1;strokeColor=none;fillColor=none;align=center;verticalAlign=middle;whiteSpace=wrap;rounded=0;" vertex="1" parent="1">
          <mxGeometry x="250" y="170" width="60" height="30" as="geometry" />
        </mxCell>
        <mxCell id="TLlCiTiMPOWScbzH-LIN-8" value="" style="image;aspect=fixed;html=1;points=[];align=center;fontSize=12;image=img/lib/azure2/networking/Virtual_Networks.svg;" vertex="1" parent="1">
          <mxGeometry x="438.25" y="610" width="33.5" height="20" as="geometry" />
        </mxCell>
        <mxCell id="TLlCiTiMPOWScbzH-LIN-9" value="" style="image;aspect=fixed;html=1;points=[];align=center;fontSize=12;image=img/lib/azure2/storage/Storage_Accounts.svg;" vertex="1" parent="1">
          <mxGeometry x="300.5" y="654" width="32.5" height="26" as="geometry" />
        </mxCell>
        <mxCell id="TLlCiTiMPOWScbzH-LIN-11" value="" style="image;aspect=fixed;html=1;points=[];align=center;fontSize=12;image=img/lib/azure2/compute/Disks.svg;" vertex="1" parent="1">
          <mxGeometry x="403" y="652" width="28.5" height="28" as="geometry" />
        </mxCell>
        <mxCell id="TLlCiTiMPOWScbzH-LIN-12" value="" style="image;aspect=fixed;html=1;points=[];align=center;fontSize=12;image=img/lib/azure2/security/Key_Vaults.svg;" vertex="1" parent="1">
          <mxGeometry x="498.75" y="654" width="30" height="30" as="geometry" />
        </mxCell>
        <mxCell id="TLlCiTiMPOWScbzH-LIN-13" value="" style="image;aspect=fixed;html=1;points=[];align=center;fontSize=12;image=img/lib/azure2/networking/Network_Interfaces.svg;" vertex="1" parent="1">
          <mxGeometry x="190" y="410" width="34" height="30" as="geometry" />
        </mxCell>
        <mxCell id="TLlCiTiMPOWScbzH-LIN-14" value="" style="image;aspect=fixed;html=1;points=[];align=center;fontSize=12;image=img/lib/azure2/networking/Public_IP_Addresses.svg;" vertex="1" parent="1">
          <mxGeometry x="251.25" y="260" width="37.5" height="30" as="geometry" />
        </mxCell>
        <mxCell id="TLlCiTiMPOWScbzH-LIN-16" value="" style="image;aspect=fixed;html=1;points=[];align=center;fontSize=12;image=img/lib/azure2/networking/Network_Security_Groups.svg;" vertex="1" parent="1">
          <mxGeometry x="349.29" y="535" width="24.71" height="30" as="geometry" />
        </mxCell>
        <mxCell id="TLlCiTiMPOWScbzH-LIN-17" value="" style="image;aspect=fixed;html=1;points=[];align=center;fontSize=12;image=img/lib/azure2/general/Resource_Groups.svg;" vertex="1" parent="1">
          <mxGeometry x="546.75" y="210" width="42.5" height="40" as="geometry" />
        </mxCell>
        <mxCell id="TLlCiTiMPOWScbzH-LIN-18" value="Azure Region" style="text;html=1;strokeColor=none;fillColor=none;align=center;verticalAlign=middle;whiteSpace=wrap;rounded=0;" vertex="1" parent="1">
          <mxGeometry x="220.88" y="120" width="118.25" height="30" as="geometry" />
        </mxCell>
        <mxCell id="TLlCiTiMPOWScbzH-LIN-19" value="vnet" style="text;html=1;strokeColor=none;fillColor=none;align=center;verticalAlign=middle;whiteSpace=wrap;rounded=0;" vertex="1" parent="1">
          <mxGeometry x="250" y="210" width="60" height="30" as="geometry" />
        </mxCell>
        <mxCell id="TLlCiTiMPOWScbzH-LIN-20" value="NIC" style="text;html=1;strokeColor=none;fillColor=none;align=center;verticalAlign=middle;whiteSpace=wrap;rounded=0;" vertex="1" parent="1">
          <mxGeometry x="177" y="450" width="60" height="30" as="geometry" />
        </mxCell>
        <mxCell id="TLlCiTiMPOWScbzH-LIN-21" value="VM" style="text;html=1;strokeColor=none;fillColor=none;align=center;verticalAlign=middle;whiteSpace=wrap;rounded=0;" vertex="1" parent="1">
          <mxGeometry x="264.5" y="470" width="60" height="30" as="geometry" />
        </mxCell>
        <mxCell id="TLlCiTiMPOWScbzH-LIN-22" value="Static IP" style="text;html=1;strokeColor=none;fillColor=none;align=center;verticalAlign=middle;whiteSpace=wrap;rounded=0;" vertex="1" parent="1">
          <mxGeometry x="240" y="290" width="60" height="30" as="geometry" />
        </mxCell>
        <mxCell id="TLlCiTiMPOWScbzH-LIN-23" value="Storage Account" style="text;html=1;strokeColor=none;fillColor=none;align=center;verticalAlign=middle;whiteSpace=wrap;rounded=0;" vertex="1" parent="1">
          <mxGeometry x="270.78000000000003" y="680" width="94.13" height="30" as="geometry" />
        </mxCell>
        <mxCell id="TLlCiTiMPOWScbzH-LIN-24" value="Managed Disk" style="text;html=1;strokeColor=none;fillColor=none;align=center;verticalAlign=middle;whiteSpace=wrap;rounded=0;" vertex="1" parent="1">
          <mxGeometry x="379.1" y="684" width="85" height="30" as="geometry" />
        </mxCell>
        <mxCell id="TLlCiTiMPOWScbzH-LIN-26" value="Azure Key Vault" style="text;html=1;strokeColor=none;fillColor=none;align=center;verticalAlign=middle;whiteSpace=wrap;rounded=0;" vertex="1" parent="1">
          <mxGeometry x="466.48" y="684" width="97.25" height="30" as="geometry" />
        </mxCell>
      </root>
    </mxGraphModel>
  </diagram>
</mxfile>
